<svg width="15" height="17" viewBox="0 0 15 17" fill="none" xmlns="http://www.w3.org/2000/svg">
<path d="M3.33333 0C2.41667 0 1.66667 0.75 1.66667 1.66667C1.66667 2.58333 2.41667 3.33333 3.33333 3.33333C4.25 3.33333 5 2.59167 5 1.66667C5 0.741667 4.25833 0 3.33333 0ZM1.66667 4.16667C0.741667 4.16667 0 4.90833 0 5.83333V10.8333H1.66667V16.6667H5.83333V8L7.94167 11.6667H9.975L10.8333 10.55V16.6667H14.1667V12.5H15V10C15 9.075 14.2583 8.33333 13.3333 8.33333H11.25C10.75 8.33333 10.3083 8.55 10 8.9C9.725 9.25 9.43333 9.63333 9.16667 10H8.90833L5.83333 4.71667C5.7 4.48333 5.18333 4.16667 4.58333 4.16667H1.66667ZM12.5 5C11.8083 5 11.25 5.55833 11.25 6.25C11.25 6.94167 11.8083 7.5 12.5 7.5C13.1917 7.5 13.75 6.94167 13.75 6.25C13.75 5.55833 13.1917 5 12.5 5Z" fill="#888A8B"/>
</svg>
