<svg width="20" height="20" viewBox="0 0 20 20" fill="none" xmlns="http://www.w3.org/2000/svg">
<path d="M5.83333 1.66663C4.91667 1.66663 4.16667 2.41663 4.16667 3.33329C4.16667 4.24996 4.91667 4.99996 5.83333 4.99996C6.75 4.99996 7.5 4.25829 7.5 3.33329C7.5 2.40829 6.75833 1.66663 5.83333 1.66663ZM4.16667 5.83329C3.24167 5.83329 2.5 6.57496 2.5 7.49996V12.5H4.16667V18.3333H8.33333V9.66663L10.4417 13.3333H12.475L13.3333 12.2166V18.3333H16.6667V14.1666H17.5V11.6666C17.5 10.7416 16.7583 9.99996 15.8333 9.99996H13.75C13.25 9.99996 12.8083 10.2166 12.5 10.5666C12.225 10.9166 11.9333 11.3 11.6667 11.6666H11.4083L8.33333 6.38329C8.2 6.14996 7.68333 5.83329 7.08333 5.83329H4.16667ZM15 6.66663C14.3083 6.66663 13.75 7.22496 13.75 7.91663C13.75 8.60829 14.3083 9.16663 15 9.16663C15.6917 9.16663 16.25 8.60829 16.25 7.91663C16.25 7.22496 15.6917 6.66663 15 6.66663Z" fill="#888A8B"/>
</svg>
