<svg width="20" height="20" viewBox="0 0 20 20" fill="none" xmlns="http://www.w3.org/2000/svg">
<path d="M12 2.99998C12 3.44201 11.8244 3.86593 11.5119 4.17849C11.1993 4.49105 10.7754 4.66665 10.3334 4.66665C9.89135 4.66665 9.46742 4.49105 9.15486 4.17849C8.8423 3.86593 8.66671 3.44201 8.66671 2.99998C8.66671 2.55795 8.8423 2.13403 9.15486 1.82147C9.46742 1.50891 9.89135 1.33331 10.3334 1.33331C10.7754 1.33331 11.1993 1.50891 11.5119 1.82147C11.8244 2.13403 12 2.55795 12 2.99998ZM8.66671 4.99998H9.66671L15.3334 8.97331V9.89331H14.6667L11.3334 7.51998V9.89331L12.6667 12.3333L14 15.3866L13.3334 16H12.6667L11.3334 12.9466L8.66671 9.27998V6.42665L7.00004 7.74665L5.66671 9.89331H4.66671V9.27998L5.66671 7.43998L8.66671 4.99998ZM9.22671 11.36L7.69337 16H7.00004L6.33337 15.3866L8.21337 10.2266L9.22671 11.36ZM2.66671 16.6666H6.66671L5.33337 18.6666H1.33337L2.66671 16.6666ZM8.66671 16.6666H11.3334L12.6667 18.6666H7.33337L8.66671 16.6666ZM17.3334 16.6666L18.6667 18.6666H14.6667L13.3334 16.6666H17.3334Z" fill="#888A8B"/>
</svg>
