<svg width="18" height="18" viewBox="0 0 18 18" fill="none" xmlns="http://www.w3.org/2000/svg">
<path d="M10.6667 1.66667C10.6667 2.10869 10.4911 2.53262 10.1785 2.84518C9.86595 3.15774 9.44203 3.33333 9 3.33333C8.55797 3.33333 8.13405 3.15774 7.82149 2.84518C7.50893 2.53262 7.33333 2.10869 7.33333 1.66667C7.33333 1.22464 7.50893 0.800716 7.82149 0.488155C8.13405 0.175595 8.55797 0 9 0C9.44203 0 9.86595 0.175595 10.1785 0.488155C10.4911 0.800716 10.6667 1.22464 10.6667 1.66667ZM7.33333 3.66667H8.33333L14 7.64V8.56H13.3333L10 6.18667V8.56L11.3333 11L12.6667 14.0533L12 14.6667H11.3333L10 11.6133L7.33333 7.94667V5.09333L5.66667 6.41333L4.33333 8.56H3.33333V7.94667L4.33333 6.10667L7.33333 3.66667ZM7.89333 10.0267L6.36 14.6667H5.66667L5 14.0533L6.88 8.89333L7.89333 10.0267ZM1.33333 15.3333H5.33333L4 17.3333H0L1.33333 15.3333ZM7.33333 15.3333H10L11.3333 17.3333H6L7.33333 15.3333ZM16 15.3333L17.3333 17.3333H13.3333L12 15.3333H16Z" fill="#888A8B"/>
</svg>
