<svg width="19" height="19" viewBox="0 0 19 19" fill="none" xmlns="http://www.w3.org/2000/svg">
<path d="M15.5833 0H2.75C1.19167 0 0 1.19167 0 2.75V15.5833C0 17.1417 1.19167 18.3333 2.75 18.3333H15.5833C17.1417 18.3333 18.3333 17.1417 18.3333 15.5833V2.75C18.3333 1.19167 17.1417 0 15.5833 0ZM5.5 13.75C5.5 14.3 5.13333 14.6667 4.58333 14.6667C4.03333 14.6667 3.66667 14.3 3.66667 13.75V10.0833C3.66667 9.53333 4.03333 9.16667 4.58333 9.16667C5.13333 9.16667 5.5 9.53333 5.5 10.0833V13.75ZM10.0833 13.75C10.0833 14.3 9.71667 14.6667 9.16667 14.6667C8.61667 14.6667 8.25 14.3 8.25 13.75V4.58333C8.25 4.03333 8.61667 3.66667 9.16667 3.66667C9.71667 3.66667 10.0833 4.03333 10.0833 4.58333V13.75ZM14.6667 13.75C14.6667 14.3 14.3 14.6667 13.75 14.6667C13.2 14.6667 12.8333 14.3 12.8333 13.75V8.25C12.8333 7.7 13.2 7.33333 13.75 7.33333C14.3 7.33333 14.6667 7.7 14.6667 8.25V13.75Z" fill="#888A8B"/>
</svg>
