<svg width="15" height="20" viewBox="0 0 15 20" fill="none" xmlns="http://www.w3.org/2000/svg">
<path d="M3.52344 13.1506C1.41797 11.9324 0 9.65508 0 7.04688C0 3.15605 3.15605 0 7.04688 0C10.9377 0 14.0938 3.15605 14.0938 7.04688C14.0938 9.65508 12.6758 11.9324 10.5703 13.1506V15.6406C10.5703 16.0209 10.2631 16.3281 9.88281 16.3281H4.21094C3.83066 16.3281 3.52344 16.0209 3.52344 15.6406V13.1506ZM4.46875 17.7031H9.625C9.71953 17.7031 9.79688 17.7805 9.79688 17.875V18.5625C9.79688 18.9428 9.48965 19.25 9.10938 19.25H4.98438C4.6041 19.25 4.29688 18.9428 4.29688 18.5625V17.875C4.29688 17.7805 4.37422 17.7031 4.46875 17.7031Z" fill="#212325"/>
</svg>
