<svg width="17" height="19" viewBox="0 0 17 19" fill="none" xmlns="http://www.w3.org/2000/svg">
<path fill-rule="evenodd" clip-rule="evenodd" d="M13.8482 0C14.5641 0 15.2754 0.430833 15.5211 1.19625L15.5908 1.42175L15.6632 1.67842L15.7365 1.96808L15.8071 2.28525L15.874 2.62992L15.9052 2.81142L15.9611 3.19367C16.1719 4.8345 16.105 7.07117 14.9326 9.33992L14.7868 9.61217C13.5567 11.8259 13.6456 14.0543 13.9233 15.5017L13.9912 15.8217L14.026 15.9702L14.0966 16.2452L14.1672 16.4853C14.4183 17.3012 13.8757 18.2472 12.9508 18.3278L12.8224 18.3333H2.20651C1.49151 18.3333 0.779256 17.9025 0.533589 17.1371L0.464839 16.9116L0.391506 16.6549L0.318172 16.3653L0.247589 16.0481L0.180673 15.7034C0.158673 15.5843 0.138506 15.4611 0.120173 15.334L0.0697558 14.9398L0.0312558 14.5237C-0.0851609 12.9617 0.0908391 10.9899 1.12209 8.99342L1.26784 8.72117C2.49801 6.50833 2.40817 4.279 2.13134 2.8325L2.06442 2.51258L2.02867 2.36408L1.95809 2.08908L1.88751 1.84892C1.63634 1.03308 2.17901 0.0870833 3.10392 0.00641664L3.23317 0H13.8482ZM8.02734 9.16667H5.27734C5.03422 9.16667 4.80107 9.26324 4.62916 9.43515C4.45725 9.60706 4.36067 9.84022 4.36067 10.0833C4.36067 10.3264 4.45725 10.5596 4.62916 10.7315C4.80107 10.9034 5.03422 11 5.27734 11H8.02734C8.27045 11 8.50361 10.9034 8.67552 10.7315C8.84743 10.5596 8.94401 10.3264 8.94401 10.0833C8.94401 9.84022 8.84743 9.60706 8.67552 9.43515C8.50361 9.26324 8.27045 9.16667 8.02734 9.16667ZM11.694 5.5H6.19401C5.96037 5.50026 5.73564 5.58972 5.56575 5.75011C5.39586 5.9105 5.29362 6.12971 5.27993 6.36295C5.26624 6.59618 5.34212 6.82585 5.49208 7.00501C5.64204 7.18418 5.85475 7.29932 6.08676 7.32692L6.19401 7.33333H11.694C11.9276 7.33307 12.1524 7.24361 12.3223 7.08322C12.4922 6.92283 12.5944 6.70363 12.6081 6.47039C12.6218 6.23715 12.5459 6.00749 12.3959 5.82832C12.246 5.64916 12.0333 5.53401 11.8013 5.50642L11.694 5.5Z" fill="#888A8B"/>
</svg>
