<svg width="16" height="14" viewBox="0 0 16 14" fill="none" xmlns="http://www.w3.org/2000/svg">
<path d="M9.65121 2.6939L9.96371 3.23515C10.0518 3.18431 10.1261 3.11276 10.1802 3.0267C10.2343 2.94065 10.2667 2.84268 10.2744 2.7413C10.2821 2.63993 10.2649 2.5382 10.2244 2.44495C10.1839 2.35169 10.1213 2.26972 10.042 2.20615L9.65121 2.6939ZM1.04246 7.66391L0.424957 7.75865C0.440353 7.85912 0.480017 7.95431 0.54051 8.03598C0.601004 8.11765 0.680502 8.18333 0.772114 8.22734C0.863726 8.27135 0.964689 8.29235 1.06625 8.28853C1.16781 8.28471 1.26691 8.25618 1.35496 8.20541L1.04246 7.66391ZM9.33871 2.15265L0.729956 7.12265L1.35496 8.20515L9.96371 3.23515L9.33871 2.15265ZM0.0302065 5.1819L0.424456 7.75865L1.66021 7.56965L1.26571 4.9929L0.0302065 5.1819ZM1.31271 2.5114C0.854914 2.77566 0.487563 3.17196 0.258732 3.64844C0.0299011 4.12493 -0.0497489 4.6594 0.0302065 5.1819L1.26571 4.9929C1.22382 4.71926 1.26575 4.43933 1.38556 4.18977C1.50537 3.9402 1.69798 3.73261 1.93771 3.59415L1.31271 2.5114ZM5.05371 0.351655L1.31246 2.51165L1.93771 3.59415L5.67846 1.43415L5.05371 0.351655ZM8.00721 0.576405C7.59472 0.245929 7.09208 0.0476684 6.56506 0.00756768C6.03804 -0.0325331 5.51144 0.0873938 5.05371 0.351655L5.67846 1.43415C5.91821 1.29569 6.19417 1.23283 6.47024 1.25379C6.74631 1.27476 7.00987 1.37857 7.22596 1.55165L8.00721 0.576405ZM10.042 2.20615L8.00721 0.576155L7.22571 1.5519L9.26021 3.1819L10.042 2.20615Z" fill="#888A8B"/>
<path fill-rule="evenodd" clip-rule="evenodd" d="M12.1392 5.71094C12.1139 5.71469 12.0896 5.72326 12.0675 5.73619L10.2632 6.77794C10.2291 6.7976 10.2013 6.82656 10.183 6.86144L12.0475 5.78494C12.0828 5.76444 12.1134 5.73994 12.1392 5.71094ZM4.386 10.2082C4.34662 10.2066 4.3076 10.2162 4.2735 10.2359L2.469 11.2777C2.44687 11.2903 2.42736 11.307 2.4115 11.3269C2.45016 11.3187 2.48729 11.3045 2.5215 11.2847L4.386 10.2082ZM12.8795 6.72569L13.248 7.36394C13.3143 7.47878 13.3323 7.61526 13.2979 7.74334C13.2636 7.87143 13.1798 7.98064 13.065 8.04694L11.766 8.79694C11.6512 8.86324 11.5147 8.88121 11.3866 8.84689C11.2585 8.81257 11.1493 8.72878 11.083 8.61394L10.724 7.99219L12.6725 6.86719C12.7462 6.82453 12.8152 6.77736 12.8795 6.72569ZM2.92025 12.4757C2.99725 12.4457 3.07258 12.4095 3.14625 12.3672L5.09475 11.2422L5.45375 11.8639C5.52005 11.9788 5.53802 12.1153 5.5037 12.2433C5.46938 12.3714 5.38559 12.4806 5.27075 12.5469L3.97175 13.2969C3.85691 13.3632 3.72044 13.3812 3.59235 13.3469C3.46426 13.3126 3.35506 13.2288 3.28875 13.1139L2.92025 12.4757Z" fill="#888A8B"/>
<path fill-rule="evenodd" clip-rule="evenodd" d="M0.717755 10.1611C0.5864 9.93368 0.501137 9.68257 0.466835 9.42215C0.432533 9.16174 0.449863 8.89712 0.517837 8.6434C0.585811 8.38968 0.703096 8.15184 0.862996 7.94345C1.0229 7.73506 1.22228 7.56021 1.44976 7.42889L9.24401 2.92889C9.47147 2.79758 9.72257 2.71237 9.98297 2.6781C10.2434 2.64384 10.508 2.6612 10.7617 2.7292C11.0153 2.79719 11.2532 2.91449 11.4615 3.07439C11.6699 3.2343 11.8447 3.43367 11.976 3.66114L12.726 4.96014C12.8586 5.18982 12.8945 5.46276 12.8259 5.71894C12.7573 5.97511 12.5897 6.19353 12.36 6.32614L2.83376 11.8261C2.72002 11.8918 2.59446 11.9344 2.46425 11.9515C2.33405 11.9686 2.20175 11.9599 2.0749 11.9259C1.94805 11.8919 1.82915 11.8333 1.72498 11.7533C1.6208 11.6733 1.5334 11.5736 1.46776 11.4599L0.717755 10.1611ZM2.35826 9.50264C2.30823 9.41731 2.27558 9.32293 2.26218 9.22493C2.24878 9.12693 2.2549 9.02725 2.28018 8.93163C2.30546 8.836 2.34941 8.74633 2.40949 8.66775C2.46957 8.58918 2.5446 8.52327 2.63026 8.47382C2.71592 8.42436 2.81051 8.39233 2.9086 8.37959C3.00668 8.36684 3.10632 8.37362 3.20177 8.39953C3.29723 8.42545 3.38662 8.46999 3.46479 8.53059C3.54296 8.59119 3.60837 8.66665 3.65726 8.75264C3.75514 8.92481 3.78096 9.1287 3.72907 9.31984C3.67718 9.51097 3.55179 9.67382 3.38028 9.77284C3.20876 9.87187 3.00504 9.89904 2.81357 9.84842C2.62209 9.79779 2.45842 9.67349 2.35826 9.50264ZM9.56101 4.47814C9.64633 4.42812 9.74071 4.39546 9.83871 4.38206C9.93671 4.36867 10.0364 4.37478 10.132 4.40006C10.2276 4.42535 10.3173 4.46929 10.3959 4.52937C10.4745 4.58946 10.5404 4.66448 10.5898 4.75014C10.6393 4.8358 10.6713 4.9304 10.6841 5.02848C10.6968 5.12657 10.69 5.2262 10.6641 5.32166C10.6382 5.41711 10.5937 5.5065 10.5331 5.58467C10.4725 5.66284 10.397 5.72825 10.311 5.77714C10.1388 5.87503 9.93494 5.90084 9.74381 5.84895C9.55268 5.79706 9.38983 5.67167 9.2908 5.50016C9.19177 5.32864 9.16461 5.12492 9.21523 4.93345C9.26585 4.74198 9.39015 4.5783 9.56101 4.47814ZM13.692 11.2774C13.3586 11.0849 12.9756 10.9955 12.5914 11.0204C12.2072 11.0454 11.839 11.1836 11.5333 11.4176C11.2276 11.6517 10.9981 11.971 10.8737 12.3354C10.7493 12.6997 10.7357 13.0928 10.8345 13.4649H14.601C14.7109 13.0511 14.6814 12.6125 14.5171 12.2171C14.3528 11.8217 14.0628 11.4915 13.692 11.2774Z" fill="#888A8B"/>
<path d="M10.8344 13.4649L10.3509 13.5932C10.3792 13.6997 10.4419 13.794 10.5293 13.8612C10.6167 13.9284 10.7239 13.9649 10.8342 13.9649L10.8344 13.4649ZM14.6009 13.4649V13.9649C14.7112 13.9649 14.8184 13.9284 14.9058 13.8612C14.9932 13.794 15.0559 13.6997 15.0842 13.5932L14.6009 13.4649ZM11.9934 11.7104C12.2137 11.5834 12.4634 11.5166 12.7177 11.5166C12.9719 11.5166 13.2217 11.5834 13.4419 11.7104L13.9419 10.8444C13.5696 10.6297 13.1474 10.5166 12.7177 10.5166C12.2879 10.5166 11.8657 10.6297 11.4934 10.8444L11.9934 11.7104ZM11.2692 12.9649C11.2693 12.7107 11.3363 12.4609 11.4634 12.2407C11.5905 12.0206 11.7733 11.8377 11.9934 11.7104L11.4934 10.8444C11.1213 11.0594 10.8123 11.3686 10.5974 11.7408C10.3825 12.113 10.2693 12.5351 10.2692 12.9649H11.2692ZM11.3174 13.3367C11.2853 13.2153 11.2691 13.0904 11.2692 12.9649H10.2692C10.2692 13.1799 10.2972 13.3907 10.3509 13.5932L11.3174 13.3367ZM10.8342 13.9649H14.6009V12.9649H10.8342V13.9649ZM14.1662 12.9649C14.1662 13.0922 14.1494 13.2169 14.1177 13.3367L15.0842 13.5932C15.1379 13.3907 15.1662 13.1797 15.1662 12.9649H14.1662ZM13.4419 11.7104C13.662 11.8377 13.8448 12.0206 13.9719 12.2407C14.099 12.4609 14.166 12.7107 14.1662 12.9649H15.1662C15.1662 12.0899 14.6994 11.2817 13.9419 10.8444L13.4419 11.7104Z" fill="#888A8B"/>
</svg>
