<svg width="10" height="16" viewBox="0 0 10 16" fill="none" xmlns="http://www.w3.org/2000/svg">
<path fill-rule="evenodd" clip-rule="evenodd" d="M6.66667 -0.333313C7.52187 -0.333314 8.34436 -0.00461704 8.96401 0.58479C9.58366 1.1742 9.95307 1.97922 9.99583 2.83335L10 3.00002V13C10 13.8552 9.6713 14.6777 9.0819 15.2974C8.49249 15.917 7.68747 16.2864 6.83333 16.3292L6.66667 16.3334H3.33333C2.47813 16.3334 1.65564 16.0047 1.03599 15.4153C0.416337 14.8258 0.0469269 14.0208 0.00416676 13.1667L0 13V3.00002C-6.68962e-07 2.14482 0.328696 1.32233 0.918103 0.702677C1.50751 0.0830241 2.31253 -0.286386 3.16667 -0.329146L3.33333 -0.333313H6.66667ZM5 10.5C4.55797 10.5 4.13405 10.6756 3.82149 10.9882C3.50893 11.3007 3.33333 11.7247 3.33333 12.1667C3.33333 12.6087 3.50893 13.0326 3.82149 13.3452C4.13405 13.6578 4.55797 13.8334 5 13.8334C5.44203 13.8334 5.86595 13.6578 6.17851 13.3452C6.49107 13.0326 6.66667 12.6087 6.66667 12.1667C6.66667 11.7247 6.49107 11.3007 6.17851 10.9882C5.86595 10.6756 5.44203 10.5 5 10.5ZM5 6.33335C4.55797 6.33335 4.13405 6.50895 3.82149 6.82151C3.50893 7.13407 3.33333 7.55799 3.33333 8.00002C3.33333 8.44205 3.50893 8.86597 3.82149 9.17853C4.13405 9.49109 4.55797 9.66669 5 9.66669C5.44203 9.66669 5.86595 9.49109 6.17851 9.17853C6.49107 8.86597 6.66667 8.44205 6.66667 8.00002C6.66667 7.55799 6.49107 7.13407 6.17851 6.82151C5.86595 6.50895 5.44203 6.33335 5 6.33335ZM5 2.16669C4.55797 2.16669 4.13405 2.34228 3.82149 2.65484C3.50893 2.9674 3.33333 3.39133 3.33333 3.83335C3.33333 4.27538 3.50893 4.6993 3.82149 5.01186C4.13405 5.32443 4.55797 5.50002 5 5.50002C5.44203 5.50002 5.86595 5.32443 6.17851 5.01186C6.49107 4.6993 6.66667 4.27538 6.66667 3.83335C6.66667 3.39133 6.49107 2.9674 6.17851 2.65484C5.86595 2.34228 5.44203 2.16669 5 2.16669Z" fill="#888A8B"/>
</svg>
