<svg width="20" height="20" viewBox="0 0 20 20" fill="none" xmlns="http://www.w3.org/2000/svg">
<path d="M18.3334 16.6667H15.6017L14.7567 13.6283C14.6889 13.665 14.6153 13.6914 14.5359 13.7075C13.0436 14.0149 11.5237 14.1687 10 14.1667C8.44337 14.1667 6.86087 14.0025 5.36337 13.6908C5.31994 13.6817 5.27731 13.6692 5.23587 13.6533L4.39837 16.6667H1.66671C1.44569 16.6667 1.23373 16.7545 1.07745 16.9107C0.921171 17.067 0.833374 17.279 0.833374 17.5C0.833374 17.721 0.921171 17.933 1.07745 18.0893C1.23373 18.2455 1.44569 18.3333 1.66671 18.3333H18.3334C18.5544 18.3333 18.7664 18.2455 18.9226 18.0893C19.0789 17.933 19.1667 17.721 19.1667 17.5C19.1667 17.279 19.0789 17.067 18.9226 16.9107C18.7664 16.7545 18.5544 16.6667 18.3334 16.6667ZM5.68087 12.055L5.70337 12.0592C7.11699 12.3511 8.55659 12.4988 10 12.5C11.4442 12.5 12.8459 12.3558 14.1975 12.075C14.2382 12.0667 14.2794 12.0614 14.3209 12.0592L13.415 8.8C13.3428 8.83684 13.2656 8.86295 13.1859 8.8775C12.135 9.07095 11.0686 9.16774 10 9.16667C8.85075 9.16502 7.7043 9.05227 6.57671 8.83L5.68087 12.055ZM7.02504 7.22083C8.0059 7.40601 9.00186 7.49946 10 7.5C10.9663 7.50114 11.9306 7.41383 12.8809 7.23917C12.9131 7.23361 12.9453 7.22944 12.9775 7.22667L11.8 2.99167C11.7617 2.85074 11.6782 2.72631 11.5622 2.63748C11.4463 2.54866 11.3044 2.50036 11.1584 2.5H8.84171C8.54171 2.5 8.28337 2.7 8.20004 2.99167L7.02504 7.22083Z" fill="#888A8B"/>
</svg>
