<svg width="19" height="16" viewBox="0 0 19 16" fill="none" xmlns="http://www.w3.org/2000/svg">
<path d="M17.5 14.1667H14.7683L13.9233 11.1283C13.8556 11.165 13.7819 11.1914 13.7025 11.2075C12.2102 11.5149 10.6903 11.6687 9.16667 11.6667C7.61 11.6667 6.0275 11.5025 4.53 11.1908C4.48657 11.1817 4.44393 11.1692 4.4025 11.1533L3.565 14.1667H0.833333C0.61232 14.1667 0.400358 14.2545 0.244078 14.4107C0.0877973 14.567 0 14.779 0 15C0 15.221 0.0877973 15.433 0.244078 15.5893C0.400358 15.7455 0.61232 15.8333 0.833333 15.8333H17.5C17.721 15.8333 17.933 15.7455 18.0893 15.5893C18.2455 15.433 18.3333 15.221 18.3333 15C18.3333 14.779 18.2455 14.567 18.0893 14.4107C17.933 14.2545 17.721 14.1667 17.5 14.1667ZM4.8475 9.555L4.87 9.55917C6.28362 9.85109 7.72322 9.99879 9.16667 10C10.6108 10 12.0125 9.85583 13.3642 9.575C13.4048 9.56666 13.4461 9.56137 13.4875 9.55917L12.5817 6.3C12.5095 6.33684 12.4323 6.36295 12.3525 6.3775C11.3016 6.57095 10.2352 6.66774 9.16667 6.66667C8.01737 6.66502 6.87093 6.55227 5.74333 6.33L4.8475 9.555ZM6.19167 4.72083C7.17252 4.90601 8.16849 4.99946 9.16667 5C10.1329 5.00114 11.0972 4.91383 12.0475 4.73917C12.0797 4.73361 12.1119 4.72944 12.1442 4.72667L10.9667 0.491667C10.9283 0.350744 10.8448 0.226309 10.7289 0.137483C10.6129 0.0486573 10.471 0.000355295 10.325 0H8.00833C7.70833 0 7.45 0.2 7.36667 0.491667L6.19167 4.72083Z" fill="#888A8B"/>
</svg>
